<?xml version="1.0" encoding="UTF-8"?>
<svg version="1.1" xmlns="http://www.w3.org/2000/svg" width="300" height="80" viewBox="0 0 300 80">
  <!-- Logo icon (scaled down from original) -->
  <g transform="translate(10, 10) scale(0.12, 0.12)">
    <path d="M0 0 C10.09679332 7.82392209 10.09679332 7.82392209 11.3984375 13.06640625 C11.39140668 17.05991387 11.28401545 19.15821042 8.89453125 22.47265625 C7.37859375 23.61734375 7.37859375 23.61734375 5.83203125 24.78515625 C5.27 25.23117188 4.70796875 25.6771875 4.12890625 26.13671875 C-1.00234576 29.91445153 -6.6387328 32.54208296 -12.41796875 35.16015625 C-13.19873779 35.51827393 -13.97950684 35.8763916 -14.78393555 36.24536133 C-20.36908186 38.70253797 -24.21086972 39.42849391 -30.16796875 37.78515625 C-30.82796875 37.78515625 -31.48796875 37.78515625 -32.16796875 37.78515625 C-31.67296875 38.83703125 -31.17796875 39.88890625 -30.66796875 40.97265625 C-29.23100388 44.0262066 -29.02838758 46.41776061 -29.16796875 49.78515625 C-18.39599311 50.92034727 -9.67883133 51.07904264 0.59765625 47.40234375 C4.70640622 46.61830692 6.39461006 47.51727186 9.83203125 49.78515625 C11.55077619 53.22264613 11.72711472 56.12397612 10.83203125 59.78515625 C8.21291803 64.11743666 5.07986531 67.92018142 1.83203125 71.78515625 C1.24808594 72.52121094 0.66414063 73.25726563 0.0625 74.015625 C-4.01794278 78.9895954 -8.77813812 82.91651793 -13.8125 86.90234375 C-16.18081335 88.72411175 -16.18081335 88.72411175 -18.16796875 90.78515625 C-17.89082031 91.59339844 -17.61367188 92.40164062 -17.328125 93.234375 C-16.96589844 94.30300781 -16.60367188 95.37164062 -16.23046875 96.47265625 C-15.87082031 97.52839844 -15.51117188 98.58414063 -15.140625 99.671875 C-10.29052911 115.19607751 -11.57630891 135.02832173 -18.98022461 149.41186523 C-19.93031296 151.1912228 -20.93262593 152.94240387 -21.9375 154.69140625 C-23.4469656 157.63350381 -23.4469656 157.63350381 -22.60546875 160.234375 C-22.13109375 161.07613281 -21.65671875 161.91789063 -21.16796875 162.78515625 C-20.58402344 163.91566406 -20.00007812 165.04617187 -19.3984375 166.2109375 C-19.06932373 166.83403809 -18.74020996 167.45713867 -18.40112305 168.09912109 C-9.67050824 184.78574562 -5.53599539 202.39060225 -4.6171875 221.171875 C-4.55627174 222.37438904 -4.55627174 222.37438904 -4.49412537 223.60119629 C-3.89483226 236.48702188 -3.8356615 249.39621299 -3.69116211 262.29345703 C-3.53955573 275.2916618 -3.2090814 288.25158703 -2.3203125 301.22265625 C-2.25235977 302.29322266 -2.18440704 303.36378906 -2.11439514 304.46679688 C-1.51286519 312.44597545 -0.79104606 321.53900162 2.83203125 328.78515625 C3.34327224 333.98975712 3.69335566 338.34961556 0.95703125 342.91015625 C-2.9469538 346.35484894 -6.17365999 346.12175948 -11.23046875 346.0625 C-15.79361035 345.63167147 -19.2043273 343.9956486 -23.16796875 341.78515625 C-23.9465625 341.38425781 -24.72515625 340.98335938 -25.52734375 340.5703125 C-31.49611924 337.29128775 -36.28436395 333.19058518 -41.14575195 328.48022461 C-43.49671042 326.21600283 -45.02383144 324.83320202 -48.16796875 323.78515625 C-48.82796875 324.77515625 -49.48796875 325.76515625 -50.16796875 326.78515625 C-49.636875 327.01589844 -49.10578125 327.24664062 -48.55859375 327.484375 C-43.2325875 329.94327935 -39.86473908 332.39161559 -37.16796875 337.78515625 C-36.8681215 342.36268639 -36.88979647 346.94897248 -36.85546875 351.53515625 C-36.82646484 352.81132812 -36.79746094 354.0875 -36.76757812 355.40234375 C-36.68836537 367.07708494 -36.68836537 367.07708494 -41.16796875 371.78515625 C-46.1301895 376.15663643 -50.80978014 376.53384445 -57.16796875 376.78515625 C-56.50796875 377.83703125 -55.84796875 378.88890625 -55.16796875 379.97265625 C-52.30608023 385.70665432 -52.37362163 391.52045987 -53.16796875 397.78515625 C-57.38607982 407.0650006 -67.12061278 412.09845833 -76.16796875 415.78515625 C-109.01700237 427.29676774 -147.98689693 427.90722588 -180.04638672 413.29248047 C-187.676316 409.57121671 -193.89041421 405.55699665 -197.23046875 397.53515625 C-199.05288592 391.00575976 -197.56732738 384.53005203 -194.54296875 378.59765625 C-194.08921875 377.99953125 -193.63546875 377.40140625 -193.16796875 376.78515625 C-193.82023437 376.759375 -194.4725 376.73359375 -195.14453125 376.70703125 C-202.25217082 376.2457685 -206.30614053 374.83043499 -211.30078125 369.515625 C-214.64827051 364.33152319 -213.74077642 357.70684651 -213.66796875 351.78515625 C-213.6834375 350.52703125 -213.69890625 349.26890625 -213.71484375 347.97265625 C-213.66627838 336.51122839 -213.66627838 336.51122839 -209.16796875 331.78515625 C-206.16506697 329.51765899 -203.73297527 327.97349176 -200.16796875 326.78515625 C-200.82796875 325.79515625 -201.48796875 324.80515625 -202.16796875 323.78515625 C-205.08934264 325.08632492 -206.88816811 326.38736819 -208.98046875 328.78515625 C-212.51028977 332.42194154 -216.41830461 335.21789548 -220.60546875 338.03515625 C-221.22591064 338.45925781 -221.84635254 338.88335937 -222.4855957 339.3203125 C-230.2539256 344.44295841 -237.75695349 347.15483453 -247.16796875 345.78515625 C-250.16994339 343.98397147 -251.61963241 342.88182893 -253.16796875 339.78515625 C-253.62976887 334.58990489 -253.71700512 329.62020338 -251.79296875 324.72265625 C-250.10939257 320.27547388 -249.5493247 315.92118009 -249.04296875 311.22265625 C-248.93009521 310.18902954 -248.93009521 310.18902954 -248.81494141 309.13452148 C-248.56934105 306.68652064 -248.36362312 304.23767613 -248.16796875 301.78515625 C-248.08184326 300.72699707 -247.99571777 299.66883789 -247.90698242 298.57861328 C-246.86685825 284.14653286 -246.85041453 269.67861683 -246.69116211 255.21533203 C-246.54741125 242.69437432 -246.28152714 230.21991209 -245.27734375 217.734375 C-245.20363052 216.79146606 -245.1299173 215.84855713 -245.05397034 214.8770752 C-243.43725011 196.64738195 -238.41752648 178.7494325 -228.42578125 163.34375 C-226.9928075 160.96431736 -226.9928075 160.96431736 -227.29296875 158.81640625 C-228.45720816 156.11370762 -229.73334365 153.48319532 -231.04296875 150.84765625 C-238.99049268 133.55797077 -239.89406497 113.67292649 -234.04296875 95.55078125 C-233.01714529 92.79190347 -233.01714529 92.79190347 -233.16796875 89.78515625 C-235.22007661 87.59075566 -235.22007661 87.59075566 -237.85546875 85.41015625 C-238.77585938 84.60707031 -239.69625 83.80398437 -240.64453125 82.9765625 C-241.47726563 82.25339844 -242.31 81.53023437 -243.16796875 80.78515625 C-261.95963542 62.91015625 -261.95963542 62.91015625 -262.16796875 54.78515625 C-260.38701973 50.62960853 -258.29968409 48.576133 -254.16796875 46.78515625 C-251.50885316 47.25458671 -249.26730902 47.82740619 -246.73046875 48.66015625 C-232.34834056 52.73818074 -219.11411488 49.07182214 -205.16796875 44.78515625 C-204.83796875 44.45515625 -204.50796875 44.12515625 -204.16796875 43.78515625 C-208.37288631 42.89700721 -208.37288631 42.89700721 -212.5925293 43.34350586 C-215.53803312 43.8486169 -216.92413757 43.47812436 -219.6875 42.4140625 C-220.53739502 42.09099121 -221.38729004 41.76791992 -222.26293945 41.43505859 C-223.60811646 40.89679443 -223.60811646 40.89679443 -224.98046875 40.34765625 C-226.3730188 39.80165771 -226.3730188 39.80165771 -227.79370117 39.24462891 C-257.3366804 27.44773295 -257.3366804 27.44773295 -261.16796875 19.78515625 C-261.88556534 15.85468401 -261.97328456 12.33112747 -260.09765625 8.73046875 C-249.90302112 -4.02563249 -231.38455954 -11.08544076 -217.16796875 -18.21484375 C-216.37825684 -18.61171387 -215.58854492 -19.00858398 -214.77490234 -19.41748047 C-194.63664785 -29.44896198 -173.69495628 -38.26936742 -152.35546875 -45.40234375 C-151.27201172 -45.76457031 -150.18855469 -46.12679687 -149.07226562 -46.5 C-103.14667798 -61.37608489 -37.67364957 -26.33903737 0 0 Z " fill="#040202" transform="translate(381.16796875,64.21484375)"/>
    <path d="M0 0 C4.5228074 0.41314106 9.02787872 0.85881609 13.5234375 1.51171875 C30.19768485 3.89616994 46.01055768 3.37756777 62.62109375 0.65625 C65.78544727 0.14473169 68.78423726 -0.15847701 72 0 C71.125 4.875 71.125 4.875 70 6 C70.20841923 40.64969683 85.23261287 80.39908995 106.61328125 107.40625 C108 110 108 110 107.50390625 112.51953125 C105.7774784 115.36701615 103.86790703 117.72477318 101.625 120.1875 C100.85414063 121.04730469 100.08328125 121.90710938 99.2890625 122.79296875 C97.20854691 124.79892661 95.71322739 126.05552211 93 127 C91.32700041 126.34938905 89.66140763 125.67966676 88 125 C81.85359553 124.40518666 77.858655 125.07854748 73 129 C68.04877981 134.21181073 68.221498 140.15571181 68 147 C66.68 147.33 65.36 147.66 64 148 C63.67 147.01 63.34 146.02 63 145 C62.01 145.309375 61.02 145.61875 60 145.9375 C44.41713137 150.80714645 25.56875118 148.74720659 10 145 C9.67 145.99 9.34 146.98 9 148 C7.35 147.67 5.7 147.34 4 147 C3.96132812 145.80503906 3.96132812 145.80503906 3.921875 144.5859375 C3.55023215 136.01952568 3.55023215 136.01952568 -1 129 C-6.24919623 125.2987929 -10.66525989 124.38696063 -17 125 C-19.01040197 125.63460882 -21.01273042 126.29629264 -23 127 C-33.79483037 116.62035541 -33.79483037 116.62035541 -36 112 C-34.92911693 108.46836433 -33.30419438 105.8939233 -31.0625 103 C-21.14791332 89.05761249 -14.48063149 73.20599582 -8.77978516 57.16894531 C-8.13674058 55.38033917 -7.45441093 53.60590806 -6.76171875 51.8359375 C-1.62929129 38.71753218 2.87738837 22.09803583 2 8 C1.34 7.34 0.68 6.68 0 6 C-0.125 2.875 -0.125 2.875 0 0 Z " fill="#FDFDFD" transform="translate(220,268)"/>
    <path d="M0 0 C1.64648093 1.64648093 1.20577389 3.60750482 1.28125 5.875 C1.33732422 7.35226563 1.33732422 7.35226563 1.39453125 8.859375 C1.46484375 10.953125 1.53515625 13.046875 1.60546875 15.140625 C1.66154297 16.61789063 1.66154297 16.61789063 1.71875 18.125 C1.74904297 19.03507812 1.77933594 19.94515625 1.81054688 20.8828125 C1.77049759 22.98425432 1.77049759 22.98425432 3 24 C5.65456193 24.10095564 8.28255176 24.13970998 10.9375 24.1328125 C12.13040649 24.13424759 12.13040649 24.13424759 13.34741211 24.13571167 C15.0320646 24.13639343 16.71671971 24.13453943 18.40136719 24.13037109 C20.98899197 24.12502275 23.57644316 24.13031619 26.1640625 24.13671875 C27.79687539 24.13605797 29.42968816 24.1347768 31.0625 24.1328125 C31.84165771 24.13483673 32.62081543 24.13686096 33.42358398 24.13894653 C37.007942 24.4583958 37.007942 24.4583958 40 23 C40.23363881 21.15108054 40.41303635 19.29511969 40.5625 17.4375 C40.64628906 16.42558594 40.73007812 15.41367188 40.81640625 14.37109375 C40.87699219 13.58863281 40.93757812 12.80617188 41 12 C41.69037354 12.01047363 42.38074707 12.02094727 43.09204102 12.03173828 C46.24882299 12.07355697 49.40554645 12.09940802 52.5625 12.125 C54.19155273 12.15013672 54.19155273 12.15013672 55.85351562 12.17578125 C61.64479442 12.21098659 66.54134642 11.98923674 72 10 C68.3867773 15.96967229 63.7433016 20.90864044 59 26 C58.11441406 26.98419922 58.11441406 26.98419922 57.2109375 27.98828125 C49.5167495 36.21121677 40.25324541 40.89527678 29.01171875 41.67578125 C27.66040251 41.7784214 26.30916781 41.8821396 24.95800781 41.98681641 C24.26018188 42.03912415 23.56235596 42.09143188 22.84338379 42.14532471 C10.44799173 43.10650977 -1.39442349 44.28462383 -13 49 C-13.78197754 49.31211426 -14.56395508 49.62422852 -15.36962891 49.94580078 C-29.08200369 55.52250242 -43.74380752 62.02373328 -54 73 C-57.00917591 71.62246614 -59.34189803 69.994132 -61.875 67.875 C-82.92936625 51.41988851 -111.26172383 42.7174215 -137.69970703 41.71533203 C-150.35760546 41.20437606 -150.35760546 41.20437606 -156 37 C-156.77214844 36.44183594 -157.54429687 35.88367188 -158.33984375 35.30859375 C-167.70880389 28.1627767 -175.95879037 20.16691377 -182 10 C-180.2675 10.48533203 -180.2675 10.48533203 -178.5 10.98046875 C-174.3286354 12.01689524 -170.29117239 12.34749065 -166 12.3125 C-164.90196045 12.30512817 -164.90196045 12.30512817 -163.78173828 12.29760742 C-152.03182565 12.05160861 -141.31223892 9.26787905 -130.2421875 5.39453125 C-116.23876716 0.64616679 -101.59209043 -2.67818161 -87 -5 C-85.24236328 -5.30744141 -85.24236328 -5.30744141 -83.44921875 -5.62109375 C-56.32446846 -9.77430261 -26.32359412 -7.9092188 0 0 Z " fill="#DE691E" transform="translate(311,111)"/>
  </g>
  
  <!-- Text with Fredoka font -->
  <text x="80" y="35" font-family="Fredoka, sans-serif" font-size="32" font-weight="700" fill="#1f2937">
    Bunifu
  </text>
  <text x="80" y="55" font-family="Fredoka, sans-serif" font-size="14" font-weight="500" fill="#6b7280">
    Where learning meets creativity
  </text>
</svg>
