<?xml version="1.0" encoding="UTF-8"?>
<svg version="1.1" xmlns="http://www.w3.org/2000/svg" width="512" height="512">
<path d="M0 0 C10.09679332 7.82392209 10.09679332 7.82392209 11.3984375 13.06640625 C11.39140668 17.05991387 11.28401545 19.15821042 8.89453125 22.47265625 C7.37859375 23.61734375 7.37859375 23.61734375 5.83203125 24.78515625 C5.27 25.23117188 4.70796875 25.6771875 4.12890625 26.13671875 C-1.00234576 29.91445153 -6.6387328 32.54208296 -12.41796875 35.16015625 C-13.19873779 35.51827393 -13.97950684 35.8763916 -14.78393555 36.24536133 C-20.36908186 38.70253797 -24.21086972 39.42849391 -30.16796875 37.78515625 C-30.82796875 37.78515625 -31.48796875 37.78515625 -32.16796875 37.78515625 C-31.67296875 38.83703125 -31.17796875 39.88890625 -30.66796875 40.97265625 C-29.23100388 44.0262066 -29.02838758 46.41776061 -29.16796875 49.78515625 C-18.39599311 50.92034727 -9.67883133 51.07904264 0.59765625 47.40234375 C4.70640622 46.61830692 6.39461006 47.51727186 9.83203125 49.78515625 C11.55077619 53.22264613 11.72711472 56.12397612 10.83203125 59.78515625 C8.21291803 64.11743666 5.07986531 67.92018142 1.83203125 71.78515625 C1.24808594 72.52121094 0.66414063 73.25726563 0.0625 74.015625 C-4.01794278 78.9895954 -8.77813812 82.91651793 -13.8125 86.90234375 C-16.18081335 88.72411175 -16.18081335 88.72411175 -18.16796875 90.78515625 C-17.89082031 91.59339844 -17.61367188 92.40164062 -17.328125 93.234375 C-16.96589844 94.30300781 -16.60367188 95.37164062 -16.23046875 96.47265625 C-15.87082031 97.52839844 -15.51117188 98.58414063 -15.140625 99.671875 C-10.29052911 115.19607751 -11.57630891 135.02832173 -18.98022461 149.41186523 C-19.93031296 151.1912228 -20.93262593 152.94240387 -21.9375 154.69140625 C-23.4469656 157.63350381 -23.4469656 157.63350381 -22.60546875 160.234375 C-22.13109375 161.07613281 -21.65671875 161.91789063 -21.16796875 162.78515625 C-20.58402344 163.91566406 -20.00007812 165.04617187 -19.3984375 166.2109375 C-19.06932373 166.83403809 -18.74020996 167.45713867 -18.40112305 168.09912109 C-9.67050824 184.78574562 -5.53599539 202.39060225 -4.6171875 221.171875 C-4.55627174 222.37438904 -4.55627174 222.37438904 -4.49412537 223.60119629 C-3.89483226 236.48702188 -3.8356615 249.39621299 -3.69116211 262.29345703 C-3.53955573 275.2916618 -3.2090814 288.25158703 -2.3203125 301.22265625 C-2.25235977 302.29322266 -2.18440704 303.36378906 -2.11439514 304.46679688 C-1.51286519 312.44597545 -0.79104606 321.53900162 2.83203125 328.78515625 C3.34327224 333.98975712 3.69335566 338.34961556 0.95703125 342.91015625 C-2.9469538 346.35484894 -6.17365999 346.12175948 -11.23046875 346.0625 C-15.79361035 345.63167147 -19.2043273 343.9956486 -23.16796875 341.78515625 C-23.9465625 341.38425781 -24.72515625 340.98335938 -25.52734375 340.5703125 C-31.49611924 337.29128775 -36.28436395 333.19058518 -41.14575195 328.48022461 C-43.49671042 326.21600283 -45.02383144 324.83320202 -48.16796875 323.78515625 C-48.82796875 324.77515625 -49.48796875 325.76515625 -50.16796875 326.78515625 C-49.636875 327.01589844 -49.10578125 327.24664062 -48.55859375 327.484375 C-43.2325875 329.94327935 -39.86473908 332.39161559 -37.16796875 337.78515625 C-36.8681215 342.36268639 -36.88979647 346.94897248 -36.85546875 351.53515625 C-36.82646484 352.81132812 -36.79746094 354.0875 -36.76757812 355.40234375 C-36.68836537 367.07708494 -36.68836537 367.07708494 -41.16796875 371.78515625 C-46.1301895 376.15663643 -50.80978014 376.53384445 -57.16796875 376.78515625 C-56.50796875 377.83703125 -55.84796875 378.88890625 -55.16796875 379.97265625 C-52.30608023 385.70665432 -52.37362163 391.52045987 -53.16796875 397.78515625 C-57.38607982 407.0650006 -67.12061278 412.09845833 -76.16796875 415.78515625 C-109.01700237 427.29676774 -147.98689693 427.90722588 -180.04638672 413.29248047 C-187.676316 409.57121671 -193.89041421 405.55699665 -197.23046875 397.53515625 C-199.05288592 391.00575976 -197.56732738 384.53005203 -194.54296875 378.59765625 C-194.08921875 377.99953125 -193.63546875 377.40140625 -193.16796875 376.78515625 C-193.82023437 376.759375 -194.4725 376.73359375 -195.14453125 376.70703125 C-202.25217082 376.2457685 -206.30614053 374.83043499 -211.30078125 369.515625 C-214.64827051 364.33152319 -213.74077642 357.70684651 -213.66796875 351.78515625 C-213.6834375 350.52703125 -213.69890625 349.26890625 -213.71484375 347.97265625 C-213.66627838 336.51122839 -213.66627838 336.51122839 -209.16796875 331.78515625 C-206.16506697 329.51765899 -203.73297527 327.97349176 -200.16796875 326.78515625 C-200.82796875 325.79515625 -201.48796875 324.80515625 -202.16796875 323.78515625 C-205.08934264 325.08632492 -206.88816811 326.38736819 -208.98046875 328.78515625 C-212.51028977 332.42194154 -216.41830461 335.21789548 -220.60546875 338.03515625 C-221.22591064 338.45925781 -221.84635254 338.88335937 -222.4855957 339.3203125 C-230.2539256 344.44295841 -237.75695349 347.15483453 -247.16796875 345.78515625 C-250.16994339 343.98397147 -251.61963241 342.88182893 -253.16796875 339.78515625 C-253.62976887 334.58990489 -253.71700512 329.62020338 -251.79296875 324.72265625 C-250.10939257 320.27547388 -249.5493247 315.92118009 -249.04296875 311.22265625 C-248.93009521 310.18902954 -248.93009521 310.18902954 -248.81494141 309.13452148 C-248.56934105 306.68652064 -248.36362312 304.23767613 -248.16796875 301.78515625 C-248.08184326 300.72699707 -247.99571777 299.66883789 -247.90698242 298.57861328 C-246.86685825 284.14653286 -246.85041453 269.67861683 -246.69116211 255.21533203 C-246.54741125 242.69437432 -246.28152714 230.21991209 -245.27734375 217.734375 C-245.20363052 216.79146606 -245.1299173 215.84855713 -245.05397034 214.8770752 C-243.43725011 196.64738195 -238.41752648 178.7494325 -228.42578125 163.34375 C-226.9928075 160.96431736 -226.9928075 160.96431736 -227.29296875 158.81640625 C-228.45720816 156.11370762 -229.73334365 153.48319532 -231.04296875 150.84765625 C-238.99049268 133.55797077 -239.89406497 113.67292649 -234.04296875 95.55078125 C-233.01714529 92.79190347 -233.01714529 92.79190347 -233.16796875 89.78515625 C-235.22007661 87.59075566 -235.22007661 87.59075566 -237.85546875 85.41015625 C-238.77585938 84.60707031 -239.69625 83.80398437 -240.64453125 82.9765625 C-241.47726563 82.25339844 -242.31 81.53023437 -243.16796875 80.78515625 C-261.95963542 62.91015625 -261.95963542 62.91015625 -262.16796875 54.78515625 C-260.38701973 50.62960853 -258.29968409 48.576133 -254.16796875 46.78515625 C-251.50885316 47.25458671 -249.26730902 47.82740619 -246.73046875 48.66015625 C-232.34834056 52.73818074 -219.11411488 49.07182214 -205.16796875 44.78515625 C-204.83796875 44.45515625 -204.50796875 44.12515625 -204.16796875 43.78515625 C-208.37288631 42.89700721 -208.37288631 42.89700721 -212.5925293 43.34350586 C-215.53803312 43.8486169 -216.92413757 43.47812436 -219.6875 42.4140625 C-220.53739502 42.09099121 -221.38729004 41.76791992 -222.26293945 41.43505859 C-223.60811646 40.89679443 -223.60811646 40.89679443 -224.98046875 40.34765625 C-226.3730188 39.80165771 -226.3730188 39.80165771 -227.79370117 39.24462891 C-257.3366804 27.44773295 -257.3366804 27.44773295 -261.16796875 19.78515625 C-261.88556534 15.85468401 -261.97328456 12.33112747 -260.09765625 8.73046875 C-249.90302112 -4.02563249 -231.38455954 -11.08544076 -217.16796875 -18.21484375 C-216.37825684 -18.61171387 -215.58854492 -19.00858398 -214.77490234 -19.41748047 C-194.63664785 -29.44896198 -173.69495628 -38.26936742 -152.35546875 -45.40234375 C-151.27201172 -45.76457031 -150.18855469 -46.12679687 -149.07226562 -46.5 C-103.14667798 -61.37608489 -37.67364957 -26.33903737 0 0 Z " fill="#040202" transform="translate(381.16796875,64.21484375)"/>
<path d="M0 0 C4.5228074 0.41314106 9.02787872 0.85881609 13.5234375 1.51171875 C30.19768485 3.89616994 46.01055768 3.37756777 62.62109375 0.65625 C65.78544727 0.14473169 68.78423726 -0.15847701 72 0 C71.125 4.875 71.125 4.875 70 6 C70.20841923 40.64969683 85.23261287 80.39908995 106.61328125 107.40625 C108 110 108 110 107.50390625 112.51953125 C105.7774784 115.36701615 103.86790703 117.72477318 101.625 120.1875 C100.85414063 121.04730469 100.08328125 121.90710938 99.2890625 122.79296875 C97.20854691 124.79892661 95.71322739 126.05552211 93 127 C91.32700041 126.34938905 89.66140763 125.67966676 88 125 C81.85359553 124.40518666 77.858655 125.07854748 73 129 C68.04877981 134.21181073 68.221498 140.15571181 68 147 C66.68 147.33 65.36 147.66 64 148 C63.67 147.01 63.34 146.02 63 145 C62.01 145.309375 61.02 145.61875 60 145.9375 C44.41713137 150.80714645 25.56875118 148.74720659 10 145 C9.67 145.99 9.34 146.98 9 148 C7.35 147.67 5.7 147.34 4 147 C3.96132812 145.80503906 3.96132812 145.80503906 3.921875 144.5859375 C3.55023215 136.01952568 3.55023215 136.01952568 -1 129 C-6.24919623 125.2987929 -10.66525989 124.38696063 -17 125 C-19.01040197 125.63460882 -21.01273042 126.29629264 -23 127 C-33.79483037 116.62035541 -33.79483037 116.62035541 -36 112 C-34.92911693 108.46836433 -33.30419438 105.8939233 -31.0625 103 C-21.14791332 89.05761249 -14.48063149 73.20599582 -8.77978516 57.16894531 C-8.13674058 55.38033917 -7.45441093 53.60590806 -6.76171875 51.8359375 C-1.62929129 38.71753218 2.87738837 22.09803583 2 8 C1.34 7.34 0.68 6.68 0 6 C-0.125 2.875 -0.125 2.875 0 0 Z " fill="#FDFDFD" transform="translate(220,268)"/>
<path d="M0 0 C1.64648093 1.64648093 1.20577389 3.60750482 1.28125 5.875 C1.33732422 7.35226563 1.33732422 7.35226563 1.39453125 8.859375 C1.46484375 10.953125 1.53515625 13.046875 1.60546875 15.140625 C1.66154297 16.61789063 1.66154297 16.61789063 1.71875 18.125 C1.74904297 19.03507812 1.77933594 19.94515625 1.81054688 20.8828125 C1.77049759 22.98425432 1.77049759 22.98425432 3 24 C5.65456193 24.10095564 8.28255176 24.13970998 10.9375 24.1328125 C12.13040649 24.13424759 12.13040649 24.13424759 13.34741211 24.13571167 C15.0320646 24.13639343 16.71671971 24.13453943 18.40136719 24.13037109 C20.98899197 24.12502275 23.57644316 24.13031619 26.1640625 24.13671875 C27.79687539 24.13605797 29.42968816 24.1347768 31.0625 24.1328125 C31.84165771 24.13483673 32.62081543 24.13686096 33.42358398 24.13894653 C37.007942 24.4583958 37.007942 24.4583958 40 23 C40.23363881 21.15108054 40.41303635 19.29511969 40.5625 17.4375 C40.64628906 16.42558594 40.73007812 15.41367188 40.81640625 14.37109375 C40.87699219 13.58863281 40.93757812 12.80617188 41 12 C41.69037354 12.01047363 42.38074707 12.02094727 43.09204102 12.03173828 C46.24882299 12.07355697 49.40554645 12.09940802 52.5625 12.125 C54.19155273 12.15013672 54.19155273 12.15013672 55.85351562 12.17578125 C61.64479442 12.21098659 66.54134642 11.98923674 72 10 C68.3867773 15.96967229 63.7433016 20.90864044 59 26 C58.11441406 26.98419922 58.11441406 26.98419922 57.2109375 27.98828125 C49.5167495 36.21121677 40.25324541 40.89527678 29.01171875 41.67578125 C27.66040251 41.7784214 26.30916781 41.8821396 24.95800781 41.98681641 C24.26018188 42.03912415 23.56235596 42.09143188 22.84338379 42.14532471 C10.44799173 43.10650977 -1.39442349 44.28462383 -13 49 C-13.78197754 49.31211426 -14.56395508 49.62422852 -15.36962891 49.94580078 C-29.08200369 55.52250242 -43.74380752 62.02373328 -54 73 C-57.00917591 71.62246614 -59.34189803 69.994132 -61.875 67.875 C-82.92936625 51.41988851 -111.26172383 42.7174215 -137.69970703 41.71533203 C-150.35760546 41.20437606 -150.35760546 41.20437606 -156 37 C-156.77214844 36.44183594 -157.54429687 35.88367188 -158.33984375 35.30859375 C-167.70880389 28.1627767 -175.95879037 20.16691377 -182 10 C-180.2675 10.48533203 -180.2675 10.48533203 -178.5 10.98046875 C-174.3286354 12.01689524 -170.29117239 12.34749065 -166 12.3125 C-164.90196045 12.30512817 -164.90196045 12.30512817 -163.78173828 12.29760742 C-152.03182565 12.05160861 -141.31223892 9.26787905 -130.2421875 5.39453125 C-116.23876716 0.64616679 -101.59209043 -2.67818161 -87 -5 C-85.24236328 -5.30744141 -85.24236328 -5.30744141 -83.44921875 -5.62109375 C-56.32446846 -9.77430261 -26.32359412 -7.9092188 0 0 Z " fill="#DE691E" transform="translate(311,111)"/>
<path d="M0 0 C1.09489746 0.37825928 2.18979492 0.75651855 3.31787109 1.14624023 C16.50077369 5.80412464 29.19961298 11.43808752 42 17.0625 C42 33.8925 42 50.7225 42 68.0625 C39.69 69.0525 37.38 70.0425 35 71.0625 C33.6696875 72.1453125 33.6696875 72.1453125 32.3125 73.25 C30 75.0625 30 75.0625 26 75.0625 C25.98582031 73.87914063 25.97164062 72.69578125 25.95703125 71.4765625 C25.69162133 60.75581651 25.09789957 51.70895928 17 43.8125 C3.49537536 33.5163175 -12.9627841 31.5397447 -29.4375 31.6875 C-30.72720703 31.67589844 -32.01691406 31.66429687 -33.34570312 31.65234375 C-49.43753546 31.70069177 -66.97572428 34.33814953 -79 46.0625 C-82.62905886 50.82281162 -85.01592803 55.24047895 -85.31640625 61.29296875 C-85.35830078 62.09541016 -85.40019531 62.89785156 -85.44335938 63.72460938 C-85.48267578 64.55798828 -85.52199219 65.39136719 -85.5625 66.25 C-85.60568359 67.09498047 -85.64886719 67.93996094 -85.69335938 68.81054688 C-85.79931518 70.89434433 -85.9001502 72.97840103 -86 75.0625 C-88.51840815 75.739719 -91.03908724 76.40441174 -93.5625 77.0625 C-94.26697266 77.25328125 -94.97144531 77.4440625 -95.69726562 77.640625 C-101.20126087 79.06101087 -106.25245326 79.71952205 -111.875 78.375 C-112.57625 77.941875 -113.2775 77.50875 -114 77.0625 C-114.08991211 76.26505371 -114.17982422 75.46760742 -114.27246094 74.64599609 C-114.74510244 71.82847791 -114.74510244 71.82847791 -117.47753906 70.59619141 C-118.56260742 70.20608887 -119.64767578 69.81598633 -120.765625 69.4140625 C-121.96703125 68.96546875 -123.1684375 68.516875 -124.40625 68.0546875 C-125.68700038 67.59755613 -126.96825355 67.14183102 -128.25 66.6875 C-151.98923841 58.07326159 -151.98923841 58.07326159 -158 52.0625 C-157.79546628 49.53650859 -157.26577811 48.34665638 -155.53125 46.4921875 C-115.91642425 16.17160933 -48.77247499 -16.91802385 0 0 Z " fill="#44475F" transform="translate(286,28.9375)"/>
<path d="M0 0 C3.63 0.66 7.26 1.32 11 2 C10.57847656 2.80824219 10.15695313 3.61648437 9.72265625 4.44921875 C9.17480469 5.51785156 8.62695312 6.58648437 8.0625 7.6875 C7.51722656 8.74324219 6.97195312 9.79898438 6.41015625 10.88671875 C2.49720144 19.52556913 3.03421464 30.10264393 6 39 C10.47106132 50.1776533 17.12284541 57.74299683 28 63 C37.78073649 66.58627005 48.8799927 66.28053615 58.46875 62.26171875 C68.23410663 57.39411043 76.4116288 50.60563043 80 40 C81.2599918 34.71664057 82.14126483 29.36058922 83 24 C84.65 24.99 86.3 25.98 88 27 C87.71125 27.556875 87.4225 28.11375 87.125 28.6875 C86.75375 29.450625 86.3825 30.21375 86 31 C85.443125 32.051875 85.443125 32.051875 84.875 33.125 C82.59686133 40.61031277 84.13070194 47.35835999 86.25 54.6875 C86.45439697 55.4000293 86.65879395 56.11255859 86.86938477 56.84667969 C88.35281075 61.67299802 90.4422536 65.65511029 93 70 C93 70.66 93 71.32 93 72 C94.41154099 72.27748242 95.82979799 72.52093516 97.25 72.75 C98.03890625 72.88921875 98.8278125 73.0284375 99.640625 73.171875 C102.13440789 73.20716242 102.13440789 73.20716242 104.13671875 71.36328125 C111.15500182 62.46168532 114.64422272 48.67529173 114.37109375 37.4609375 C113.81385245 33.76554781 112.42214588 31.80060618 110 29 C110.8125 27.0625 110.8125 27.0625 112 25 C112.99 24.67 113.98 24.34 115 24 C115.01417969 24.58265625 115.02835937 25.1653125 115.04296875 25.765625 C115.70850362 37.20562981 120.38872866 47.74529161 128.73828125 55.64453125 C138.42388243 63.56546803 148.65863633 66.13154312 161 65 C171.27003615 63.60260164 179.91290586 58.12610276 186.47265625 50.2265625 C192.74357948 41.13660039 195.23820497 29.89023647 194 19 C192.74164311 12.68105677 190.42248391 7.42876758 187 2 C192.445 1.01 192.445 1.01 198 0 C204.94467304 18.20496434 204.98800225 34.47987019 197.4921875 52.65625 C186.51311662 76.14635515 165.45929353 90.55157575 141.65234375 99.21875 C119.9344991 106.18534901 95.46326246 109.16303626 73 104 C72.30664551 103.84934082 71.61329102 103.69868164 70.89892578 103.54345703 C45.21204856 97.86978014 20.83290692 84.83259774 6 62.375 C2.9092785 57.09629248 0.23373537 51.69479786 -2 46 C-2.32097656 45.1853125 -2.64195312 44.370625 -2.97265625 43.53125 C-7.8254063 28.90528705 -5.41327457 14.01651452 0 0 Z " fill="#FCFCFC" transform="translate(157,158)"/>
<path d="M0 0 C3.20473575 3.69030178 5.21799264 7.25705072 7.125 11.75 C7.62257813 12.89984375 8.12015625 14.0496875 8.6328125 15.234375 C11.5843734 22.90087309 12.34222751 30.33088026 12.3125 38.5 C12.32861328 39.38558594 12.34472656 40.27117187 12.36132812 41.18359375 C12.36582191 47.30412907 11.28811447 52.32776163 9 58 C5.48199909 57.42673177 3.95584918 56.26591975 1.57421875 53.65625 C0.62579102 52.65271484 0.62579102 52.65271484 -0.34179688 51.62890625 C-1.65020418 50.21546328 -2.95236603 48.79621194 -4.24804688 47.37109375 C-8.38519855 42.92408657 -8.38519855 42.92408657 -13.98046875 41.03125 C-14.97691406 41.0209375 -15.97335937 41.010625 -17 41 C-19.11995538 44.17993308 -19.27094206 45.14805372 -19.37890625 48.81640625 C-19.41306641 49.74517578 -19.44722656 50.67394531 -19.48242188 51.63085938 C-19.50884766 52.59830078 -19.53527344 53.56574219 -19.5625 54.5625 C-19.62232121 56.48059704 -19.68593606 58.39858069 -19.75390625 60.31640625 C-19.77783447 61.16662354 -19.8017627 62.01684082 -19.82641602 62.89282227 C-20 65 -20 65 -21 67 C-24.53487117 66.40822469 -26.37265076 65.08392988 -29 62.6875 C-29.69738281 62.06230469 -30.39476562 61.43710937 -31.11328125 60.79296875 C-33 59 -33 59 -35.1875 56.5 C-36.9640486 54.67107599 -36.9640486 54.67107599 -39.75 55.25 C-40.4925 55.4975 -41.235 55.745 -42 56 C-41.57707893 60.79310548 -39.43290314 63.80024485 -36 67 C-28.28506882 72.89016005 -28.28506882 72.89016005 -19 74 C-15.66223371 71.68210675 -14.34133707 69.13874813 -13.37109375 65.21484375 C-12.58322722 60.51252459 -12.29667142 55.75454982 -12 51 C-11.34 51.680625 -10.68 52.36125 -10 53.0625 C-2.22566449 61.25157199 -2.22566449 61.25157199 7.875 65.4375 C12.19557811 64.83261907 13.75533139 62.86055046 17 60 C17.07530344 65.2612002 17.12913421 70.52207289 17.16479492 75.78369141 C17.17969266 77.56597369 17.20001783 79.3482206 17.22631836 81.13037109 C17.3912421 92.61035707 17.26362613 103.88801782 14 115 C13.01 115.495 13.01 115.495 12 116 C11.54109375 114.81921875 11.0821875 113.6384375 10.609375 112.421875 C9.99012515 110.8643678 9.37030332 109.30708793 8.75 107.75 C8.44964844 106.97269531 8.14929688 106.19539063 7.83984375 105.39453125 C6.14956499 101.18681605 4.72091738 97.81642561 1 95 C-2.41356344 94.08279076 -2.41356344 94.08279076 -6 95 C-9.32383769 97.84684048 -11.58828986 101.38243479 -14 105 C-17.55435986 103.56443781 -19.03428242 101.90560522 -21.0625 98.6875 C-21.57167969 97.88828125 -22.08085937 97.0890625 -22.60546875 96.265625 C-25.70813397 91.22488038 -25.70813397 91.22488038 -27 89 C-29.475 89.495 -29.475 89.495 -32 90 C-30.75797418 97.98651489 -26.36103111 106.16399852 -19.85546875 111.08984375 C-17.04774186 112.46710768 -14.96342022 112.52764443 -11.92578125 111.890625 C-8.29813075 110.21292862 -6.29235185 107.16110939 -4 104 C-3.34 103.34 -2.68 102.68 -2 102 C1.03618825 107.8483954 3.75932939 113.67284163 6.0078125 119.87109375 C7.06444254 122.13827237 8.05449114 123.43964264 10 125 C13.74849077 125.46856135 14.76746204 125.15502531 18 123 C18.08040527 123.83136475 18.16081055 124.66272949 18.24365234 125.51928711 C18.54865404 128.64522815 18.85864703 131.77062532 19.171875 134.89575195 C19.37096347 136.89692612 19.56444626 138.89865544 19.7578125 140.90039062 C20.84273587 152.5638996 20.84273587 152.5638996 24.125 163.75 C25.11786058 166.30307007 25.1551809 168.28433419 25 171 C18.5161825 172.85924349 13.731899 170.00701064 8 167 C-10.93513147 154.84617665 -22.74932364 137.52486179 -33 118 C-33.58265625 116.91332031 -34.1653125 115.82664062 -34.765625 114.70703125 C-44.54978008 95.20730162 -52.70259302 71.34762888 -54.16748047 49.50244141 C-54.22436035 48.69339355 -54.28124023 47.8843457 -54.33984375 47.05078125 C-54.37327881 46.32157471 -54.40671387 45.59236816 -54.44116211 44.84106445 C-54.84267327 42.78577473 -54.84267327 42.78577473 -57.04125977 41.74682617 C-57.68764404 41.50037354 -58.33402832 41.2539209 -59 41 C-59 40.01 -59 39.02 -59 38 C-59.66 37.67 -60.32 37.34 -61 37 C-59.98421875 36.69707031 -58.9684375 36.39414062 -57.921875 36.08203125 C-35.2634452 29.23637527 -14.71172373 19.23032459 0 0 Z " fill="#DC681E" transform="translate(351,230)"/>
<path d="M0 0 C0.66 0.66 1.32 1.32 2 2 C2.46535156 2.46019531 2.93070313 2.92039063 3.41015625 3.39453125 C4.50144395 4.49654414 5.57092613 5.62045225 6.62109375 6.76171875 C19.57776869 20.49858057 36.3841207 29.09750991 54.109375 34.9921875 C56.54161291 35.84018396 58.73745382 36.78086104 61 38 C60.67 39.65 60.34 41.3 60 43 C58.68 43.33 57.36 43.66 56 44 C55.89977539 44.68400879 55.79955078 45.36801758 55.69628906 46.07275391 C51.96348787 71.24165265 51.96348787 71.24165265 48 83 C47.525934 84.4921533 47.05198423 85.98434353 46.578125 87.4765625 C40.37251915 106.52030133 32.04199905 124.91913138 20 141 C19.26136719 141.99128906 18.52273437 142.98257813 17.76171875 144.00390625 C8.62209726 155.67599835 -3.52178069 167.45781355 -18 172 C-21.4375 171.6875 -21.4375 171.6875 -24 171 C-23.43600033 166.52325265 -22.61424985 162.22689708 -21.5402832 157.84667969 C-19.49084039 149.41923749 -18.45672377 141.33214112 -18.17578125 132.671875 C-18.01735408 129.36250736 -17.62076798 126.25019982 -17 123 C-16.01 123.66 -15.02 124.32 -14 125 C-11.54290625 125.58350505 -11.54290625 125.58350505 -9 125 C-5.07171851 120.97648745 -3.33891806 116.40311244 -1.375 111.25 C1.73849693 103.13075153 1.73849693 103.13075153 4 102 C4.39832031 102.55429687 4.79664063 103.10859375 5.20703125 103.6796875 C5.73683594 104.40414062 6.26664063 105.12859375 6.8125 105.875 C7.59560547 106.95394531 7.59560547 106.95394531 8.39453125 108.0546875 C10.03272777 110.23028655 10.03272777 110.23028655 13 112 C17.16356707 112.13878557 19.62711329 112.11071328 22.90234375 109.4609375 C26.93619051 105.02988482 31.03240014 99.70808916 33 94 C32.69888016 91.29642126 32.69888016 91.29642126 32 89 C29.62744285 89.00196464 29.62744285 89.00196464 27 90 C25.42574222 92.15471036 24.18077071 94.10792462 22.9375 96.4375 C19.0173965 103.64893793 19.0173965 103.64893793 15 105 C14.50371094 104.278125 14.00742188 103.55625 13.49609375 102.8125 C9.46361455 96.94089341 9.46361455 96.94089341 3.25 94.125 C-0.57962307 95.15605236 -1.51289263 95.94851058 -4 99 C-5.44213354 101.84448908 -6.60119875 104.77692208 -7.75 107.75 C-8.06582031 108.54277344 -8.38164062 109.33554687 -8.70703125 110.15234375 C-9.48057437 112.09792189 -10.24155202 114.04848779 -11 116 C-11.66 115.67 -12.32 115.34 -13 115 C-16.51635011 103.02754415 -16.36978539 90.85184122 -16.1875 78.5 C-16.17240419 76.69402176 -16.15872457 74.8880311 -16.14648438 73.08203125 C-16.1139164 68.72103912 -16.06241407 64.36066286 -16 60 C-14.52905273 61.27970378 -13.05810547 62.55940755 -11.5871582 63.83911133 C-9.92887415 65.20705873 -9.92887415 65.20705873 -7.1875 65.6875 C0.54390063 64.019943 5.86049472 58.50577736 10.6875 52.5390625 C11.120625 52.03117187 11.55375 51.52328125 12 51 C12.33 51 12.66 51 13 51 C13.10957031 52.08539063 13.21914062 53.17078125 13.33203125 54.2890625 C13.49158608 55.73444152 13.65177611 57.17975051 13.8125 58.625 C13.88275391 59.33785156 13.95300781 60.05070312 14.02539062 60.78515625 C14.55304144 65.38627133 15.45883467 69.01721203 18 73 C22.16298874 74.46929014 24.99890157 74.2832237 28.9375 72.5 C34.48922721 69.39406294 39.46778045 65.29832932 43 60 C43 58.68 43 57.36 43 56 C40.7640544 55.06398862 40.7640544 55.06398862 38 55 C35.30133754 57.00728829 35.30133754 57.00728829 32.875 59.8125 C28.15906289 64.89395808 28.15906289 64.89395808 25 67 C24.01 67 23.02 67 22 67 C20.76798699 64.53597399 20.84288984 62.81608954 20.7890625 60.0625 C20.76070312 59.08539063 20.73234375 58.10828125 20.703125 57.1015625 C20.65104625 55.03403609 20.60677352 52.96629829 20.5703125 50.8984375 C20.539375 49.92132813 20.5084375 48.94421875 20.4765625 47.9375 C20.4468335 46.58978516 20.4468335 46.58978516 20.41650391 45.21484375 C20.27905762 44.48394531 20.14161133 43.75304687 20 43 C17.20697425 40.72750295 17.20697425 40.72750295 14.16015625 41.046875 C10.24168639 42.22871263 8.12504016 44.31325855 5.4375 47.25 C4.52871094 48.20390625 3.61992187 49.1578125 2.68359375 50.140625 C0.89940201 52.0416852 -0.87928936 53.94792314 -2.65234375 55.859375 C-5 58 -5 58 -8 58 C-13.40463496 48.99227507 -12.30486523 31.6579602 -9.90234375 21.64453125 C-7.37692624 14.24319942 -4.33998677 6.50998016 0 0 Z " fill="#DC681E" transform="translate(160,230)"/>
<path d="M0 0 C0.89976562 0.144375 1.79953125 0.28875 2.7265625 0.4375 C10.96462166 1.62615784 19.04819246 2.21599568 27.375 2.25 C28.27686035 2.25902344 29.1787207 2.26804687 30.10791016 2.27734375 C35.50034713 2.25363639 40.44789886 1.67206891 45.69775391 0.42871094 C48.17786509 -0.03312101 50.48291692 -0.07008894 53 0 C53.495 0.99 53.495 0.99 54 2 C55.32 2 56.64 2 58 2 C58.02578125 2.7734375 58.0515625 3.546875 58.078125 4.34375 C58.52827689 12.6101757 59.5664482 18.47840841 65.4375 24.5 C69.36104768 26.15202007 71.31905955 25.96813195 75.5 25.6875 C81.39128452 25.46582111 81.39128452 25.46582111 84.10546875 27.84765625 C85.64118958 30.17967677 86.86491908 32.45134248 88 35 C88.56460938 36.00160156 88.56460938 36.00160156 89.140625 37.0234375 C90.7460017 40.7158039 90.2171138 44.23741702 89 48 C79.17923598 60.91458853 56.79649956 64.00577502 41.90234375 66.26953125 C18.37090329 69.42576595 -12.58917325 66.90127295 -32.37109375 52.39453125 C-36.38440078 48.95867847 -37.79975352 46.96319638 -38.2734375 41.62109375 C-37.66708846 35.80880512 -34.08788612 30.08788612 -30 26 C-27.4609375 25.98046875 -27.4609375 25.98046875 -24.375 26.1875 C-19.08942541 26.27633319 -15.97148799 25.52907251 -11.62109375 22.58203125 C-7.32808824 18.39247165 -6.58735534 14.56940433 -6.3125 8.6875 C-6.24675781 7.43324219 -6.18101562 6.17898438 -6.11328125 4.88671875 C-6.07589844 3.93410156 -6.03851563 2.98148437 -6 2 C-4.35 2 -2.7 2 -1 2 C-0.67 1.34 -0.34 0.68 0 0 Z " fill="#DE691E" transform="translate(230,413)"/>
<path d="M0 0 C2.97224547 -0.2666279 5.25358903 -0.28816796 8.15625 0.44921875 C13.25503593 5.1480999 16.79562985 11.79321191 17.33203125 18.71875 C17.63457228 29.08476099 15.49260382 38.66443184 8.296875 46.46484375 C-0.19038783 54.29417923 -7.96148461 55.26574087 -19.08984375 54.921875 C-27.49432039 54.3240531 -34.03208635 50.70623244 -39.84375 44.69921875 C-45.98410965 36.77229969 -48.1000232 28.4117574 -46.84375 18.44921875 C-45.90429587 15.23158835 -44.97110951 14.52778701 -42.0703125 12.73828125 C-28.45691071 6.44835808 -14.78881677 2.33614551 0 0 Z " fill="#FBDE57" transform="translate(326.84375,160.55078125)"/>
<path d="M0 0 C1.0003125 0.12503906 2.000625 0.25007812 3.03125 0.37890625 C4.1759375 0.51425781 5.320625 0.64960938 6.5 0.7890625 C20.66030321 2.96203586 34.77025727 7.94245611 47.03125 15.37890625 C47.80043013 32.79228968 47.80043013 32.79228968 43.03125 40.37890625 C42.69222656 41.00023437 42.35320312 41.6215625 42.00390625 42.26171875 C38.04803255 48.76568191 31.48171459 51.99872041 24.59375 54.75390625 C14.37790171 56.54616034 5.17778862 55.63347816 -3.51953125 49.61328125 C-8.47931335 45.48959989 -11.73875218 41.42823735 -13.96875 35.37890625 C-14.38125 34.30640625 -14.79375 33.23390625 -15.21875 32.12890625 C-17.08376447 22.80383391 -16.49436578 14.80282473 -11.96875 6.37890625 C-11.46021484 5.41210938 -11.46021484 5.41210938 -10.94140625 4.42578125 C-7.99168101 -0.06703869 -4.94381576 -0.34170491 0 0 Z " fill="#FBDE57" transform="translate(183.96875,160.62109375)"/>
<path d="M0 0 C0.70022278 0.00304138 1.40044556 0.00608276 2.12188721 0.00921631 C16.16384841 0.09939588 30.92005747 0.79246123 42.125 10.4375 C46.55398292 15.86557907 48.26288459 20.61423277 48.1875 27.625 C48.17847656 28.71167969 48.16945313 29.79835938 48.16015625 30.91796875 C48.14855469 31.74941406 48.13695312 32.58085938 48.125 33.4375 C41.375 33.5625 41.375 33.5625 39.125 32.4375 C14.75238704 27.66425529 -13.23359675 26.75688712 -37.55078125 32.5078125 C-41.05911575 33.33145169 -44.25450115 33.62316661 -47.875 33.4375 C-48.58507928 17.65796055 -48.58507928 17.65796055 -43.3984375 11.7578125 C-31.48132248 0.82018639 -15.44556016 -0.14267039 0 0 Z " fill="#44475F" transform="translate(255.875,67.5625)"/>
<path d="M0 0 C4.28025473 0.85605095 6.80017179 1.73391963 10.5703125 3.6953125 C11.6325 4.24703125 12.6946875 4.79875 13.7890625 5.3671875 C14.88992188 5.94726562 15.99078125 6.52734375 17.125 7.125 C18.20265625 7.681875 19.2803125 8.23875 20.390625 8.8125 C30.29592052 13.99189549 39.71359748 19.45016659 48 27 C47.64593026 29.58360265 47.31655418 30.72667891 45.3125 32.45703125 C39.00794597 36.15243707 32.51222623 38.99283498 25.71484375 41.63989258 C21.5073196 43.25055315 21.5073196 43.25055315 18 46 C17.87625 46.99 17.87625 46.99 17.75 48 C17 50 17 50 14.3125 51.5 C11 52 11 52 7.9375 50.25 C6.968125 49.5075 5.99875 48.765 5 48 C3.35 47.34 1.7 46.68 0 46 C0 30.82 0 15.64 0 0 Z " fill="#44475F" transform="translate(336,51)"/>
<path d="M0 0 C3.8026029 2.0050088 5.61790841 3.42686262 8 7 C8.22705078 8.90112305 8.22705078 8.90112305 8.1953125 11.01171875 C8.19031738 11.69451904 8.18532227 12.37731934 8.18017578 13.08081055 C8.15286377 14.37112183 8.15286377 14.37112183 8.125 15.6875 C8.08375 18.430625 8.0425 21.17375 8 24 C0.08 24 -7.84 24 -16 24 C-16.12375 20.225625 -16.12375 20.225625 -16.25 16.375 C-16.28641602 15.59431152 -16.32283203 14.81362305 -16.36035156 14.00927734 C-16.44089091 8.89243061 -15.37669723 6.04474884 -12 2 C-7.96127401 -0.69248399 -4.74486631 -0.67205444 0 0 Z " fill="#FBC600" transform="translate(336,104)"/>
<path d="M0 0 C4.20227546 0.87547405 5.42604064 2.17880192 8 5.625 C8.74073147 9.30536864 8.69848177 12.88232864 8.625 16.625 C8.65400391 18.10226562 8.65400391 18.10226562 8.68359375 19.609375 C8.65122532 24.39990245 8.5731835 26.85439723 5.65234375 30.78125 C2.4142237 33.03219648 0.86634538 33.28310134 -3 32.625 C-6.1359157 30.84515595 -6.84102736 30.10191793 -8 26.625 C-8.3042547 23.17190178 -8.3234943 19.71492872 -8.375 16.25 C-8.41238281 15.30382812 -8.44976562 14.35765625 -8.48828125 13.3828125 C-8.54802825 8.65616069 -8.56587514 6.38202359 -5.6640625 2.5 C-3 0.625 -3 0.625 0 0 Z " fill="#F9AB53" transform="translate(304,399.375)"/>
<path d="M0 0 C4.18421805 0.87171209 5.42961969 2.20639419 8 5.625 C8.68745025 9.14220473 8.60807733 12.55353546 8.5 16.125 C8.50386719 17.53072266 8.50386719 17.53072266 8.5078125 18.96484375 C8.43739363 23.92937377 8.31960315 27.65449427 5 31.625 C2.19084526 33.02957737 0.11189466 32.87395157 -3 32.625 C-6.1359157 30.84515595 -6.84102736 30.10191793 -8 26.625 C-8.3042547 23.17190178 -8.3234943 19.71492872 -8.375 16.25 C-8.41238281 15.30382812 -8.44976562 14.35765625 -8.48828125 13.3828125 C-8.54802825 8.65616069 -8.56587514 6.38202359 -5.6640625 2.5 C-3 0.625 -3 0.625 0 0 Z " fill="#F9AC54" transform="translate(328,399.375)"/>
<path d="M0 0 C0.66257813 0.09152344 1.32515625 0.18304688 2.0078125 0.27734375 C4.57416763 1.35650145 5.40724874 2.71582835 6.875 5.0625 C7.26318359 7.36499023 7.26318359 7.36499023 7.2734375 9.87109375 C7.27923828 11.23911133 7.27923828 11.23911133 7.28515625 12.63476562 C7.27355469 13.58029297 7.26195312 14.52582031 7.25 15.5 C7.26160156 16.44166016 7.27320313 17.38332031 7.28515625 18.35351562 C7.26400482 23.34877829 7.23769954 27.06826908 3.875 31.0625 C0.98638291 32.50680855 -0.92147701 32.43938506 -4.125 32.0625 C-7.13998909 29.98167053 -8.86888893 28.33746227 -9.60571289 24.66943359 C-9.79933256 21.78447477 -9.8067538 18.95316008 -9.75 16.0625 C-9.76933594 15.07765625 -9.78867188 14.0928125 -9.80859375 13.078125 C-9.77647405 8.32440954 -9.66827054 5.82066008 -6.84375 1.87890625 C-4.09787917 0.04438048 -3.18136477 -0.55517934 0 0 Z " fill="#F9AC54" transform="translate(209.125,399.9375)"/>
<path d="M0 0 C4.18421805 0.87171209 5.42961969 2.20639419 8 5.625 C8.68745025 9.14220473 8.60807733 12.55353546 8.5 16.125 C8.50386719 17.53072266 8.50386719 17.53072266 8.5078125 18.96484375 C8.43739363 23.92937377 8.31960315 27.65449427 5 31.625 C2.19084526 33.02957737 0.11189466 32.87395157 -3 32.625 C-6.1359157 30.84515595 -6.84102736 30.10191793 -8 26.625 C-8.3042547 23.17190178 -8.3234943 19.71492872 -8.375 16.25 C-8.41238281 15.30382812 -8.44976562 14.35765625 -8.48828125 13.3828125 C-8.54802825 8.65616069 -8.56587514 6.38202359 -5.6640625 2.5 C-3 0.625 -3 0.625 0 0 Z " fill="#F9AC54" transform="translate(184,399.375)"/>
<path d="M0 0 C4.18421805 0.87171209 5.42961969 2.20639419 8 5.625 C8.68745025 9.14220473 8.60807733 12.55353546 8.5 16.125 C8.50386719 17.53072266 8.50386719 17.53072266 8.5078125 18.96484375 C8.43739363 23.92937377 8.31960315 27.65449427 5 31.625 C2.19084526 33.02957737 0.11189466 32.87395157 -3 32.625 C-6.1359157 30.84515595 -6.84102736 30.10191793 -8 26.625 C-8.3042547 23.17190178 -8.3234943 19.71492872 -8.375 16.25 C-8.41238281 15.30382812 -8.44976562 14.35765625 -8.48828125 13.3828125 C-8.54802825 8.65616069 -8.56587514 6.38202359 -5.6640625 2.5 C-3 0.625 -3 0.625 0 0 Z " fill="#050401" transform="translate(312,167.375)"/>
<path d="M0 0 C4.18421805 0.87171209 5.42961969 2.20639419 8 5.625 C8.68745025 9.14220473 8.60807733 12.55353546 8.5 16.125 C8.50386719 17.53072266 8.50386719 17.53072266 8.5078125 18.96484375 C8.43739363 23.92937377 8.31960315 27.65449427 5 31.625 C2.19084526 33.02957737 0.11189466 32.87395157 -3 32.625 C-6.1359157 30.84515595 -6.84102736 30.10191793 -8 26.625 C-8.3042547 23.17190178 -8.3234943 19.71492872 -8.375 16.25 C-8.41238281 15.30382812 -8.44976562 14.35765625 -8.48828125 13.3828125 C-8.54802825 8.65616069 -8.56587514 6.38202359 -5.6640625 2.5 C-3 0.625 -3 0.625 0 0 Z " fill="#050401" transform="translate(200,167.375)"/>
<path d="M0 0 C0.89976562 0.144375 1.79953125 0.28875 2.7265625 0.4375 C10.96462166 1.62615784 19.04819246 2.21599568 27.375 2.25 C28.27686035 2.25902344 29.1787207 2.26804687 30.10791016 2.27734375 C35.50034713 2.25363639 40.44789886 1.67206891 45.69775391 0.42871094 C48.17786509 -0.03312101 50.48291692 -0.07008894 53 0 C53.6875 2.8125 53.6875 2.8125 54 6 C52.35142401 8.44931289 51.13221506 8.96462916 48.26953125 9.73046875 C40.06556307 10.81506115 31.96456395 11.20217044 23.6875 11.25 C22.1857019 11.26389771 22.1857019 11.26389771 20.65356445 11.27807617 C7.61544839 11.22312667 7.61544839 11.22312667 2 9 C0.2019043 7.09472656 0.2019043 7.09472656 -1 5 C-0.6875 2.25 -0.6875 2.25 0 0 Z " fill="#090604" transform="translate(230,413)"/>
<path d="M0 0 C3.5625 0.625 3.5625 0.625 6.5 2.625 C8.56930247 5.6348945 9.28604698 7.39245243 9.0625 11.0390625 C7.65120892 18.33808357 5.10011423 26.07876058 1.5625 32.625 C0.9025 32.625 0.2425 32.625 -0.4375 32.625 C-8.28512288 14.38376973 -8.28512288 14.38376973 -7.4375 5.625 C-5.38739561 1.68879957 -4.38967409 0.79812256 0 0 Z " fill="#F3F642" transform="translate(255.4375,190.375)"/>
<path d="M0 0 C1.65 0.99 3.3 1.98 5 3 C4.71382812 3.56203125 4.42765625 4.1240625 4.1328125 4.703125 C2.98584069 7.02870923 1.92160206 9.37770201 0.875 11.75 C0.52179688 12.54921875 0.16859375 13.3484375 -0.1953125 14.171875 C-0.46085938 14.77515625 -0.72640625 15.3784375 -1 16 C-2.26823485 12.34606463 -1.75715321 9.50929974 -1.0625 5.75 C-0.86785156 4.67234375 -0.67320312 3.5946875 -0.47265625 2.484375 C-0.31667969 1.66453125 -0.16070312 0.8446875 0 0 Z " fill="#EBEBEB" transform="translate(240,182)"/>
<path d="M0 0 C0.33 3.63 0.66 7.26 1 11 C0.34 11 -0.32 11 -1 11 C-2.38938077 9.03852126 -3.7260411 7.03833424 -5 5 C-2.74193548 0 -2.74193548 0 0 0 Z " fill="#F5F5F5" transform="translate(272,182)"/>
</svg>
